<svg width="57" height="57" viewBox="0 0 57 57" fill="none" xmlns="http://www.w3.org/2000/svg">
    <path
        d="M49.4609 13.1078C49.2936 12.9077 49.0845 12.7467 48.8483 12.6363C48.6121 12.5259 48.3545 12.4687 48.0938 12.4688H12.1748L11.0861 6.4882C10.9369 5.66735 10.5044 4.92487 9.86398 4.39021C9.22353 3.85555 8.41574 3.56262 7.58145 3.5625H3.5625C3.09008 3.5625 2.63702 3.75017 2.30297 4.08422C1.96892 4.41827 1.78125 4.87133 1.78125 5.34375C1.78125 5.81617 1.96892 6.26923 2.30297 6.60328C2.63702 6.93733 3.09008 7.125 3.5625 7.125H7.57031L13.2614 38.3614C13.429 39.2878 13.8384 40.1535 14.4482 40.8708C13.6066 41.6568 12.9992 42.6605 12.6933 43.7707C12.3874 44.8808 12.3949 46.054 12.7151 47.1601C13.0352 48.2662 13.6554 49.2621 14.507 50.0372C15.3586 50.8124 16.4082 51.3365 17.5394 51.5516C18.6707 51.7666 19.8394 51.6642 20.916 51.2555C21.9926 50.8469 22.9349 50.1481 23.6386 49.2366C24.3423 48.3251 24.7798 47.2365 24.9025 46.0915C25.0253 44.9466 24.8285 43.79 24.3341 42.75H34.4472C34.0486 43.5843 33.8424 44.4973 33.8438 45.4219C33.8438 46.6549 34.2094 47.8603 34.8944 48.8855C35.5795 49.9107 36.5532 50.7098 37.6923 51.1817C38.8315 51.6535 40.085 51.777 41.2944 51.5365C42.5037 51.2959 43.6146 50.7021 44.4865 49.8302C45.3584 48.9584 45.9522 47.8475 46.1927 46.6381C46.4333 45.4288 46.3098 44.1753 45.8379 43.0361C45.3661 41.8969 44.567 40.9232 43.5418 40.2382C42.5165 39.5531 41.3112 39.1875 40.0781 39.1875H18.5183C18.1012 39.1874 17.6973 39.041 17.3771 38.7736C17.0568 38.5063 16.8406 38.1351 16.766 37.7246L16.0602 33.8438H41.8883C43.1398 33.8436 44.3514 33.4042 45.3121 32.6022C46.2728 31.8002 46.9215 30.6865 47.1452 29.4552L49.8527 14.5684C49.8986 14.3111 49.8872 14.0469 49.8195 13.7944C49.7518 13.542 49.6293 13.3076 49.4609 13.1078ZM21.375 45.4219C21.375 45.9503 21.2183 46.4669 20.9247 46.9063C20.6311 47.3457 20.2138 47.6881 19.7256 47.8904C19.2374 48.0926 18.7002 48.1455 18.1819 48.0424C17.6636 47.9393 17.1875 47.6848 16.8138 47.3112C16.4402 46.9375 16.1857 46.4614 16.0826 45.9431C15.9795 45.4248 16.0324 44.8876 16.2346 44.3994C16.4369 43.9112 16.7793 43.4939 17.2187 43.2003C17.6581 42.9067 18.1747 42.75 18.7031 42.75C19.4118 42.75 20.0914 43.0315 20.5924 43.5326C21.0935 44.0336 21.375 44.7132 21.375 45.4219ZM42.75 45.4219C42.75 45.9503 42.5933 46.4669 42.2997 46.9063C42.0061 47.3457 41.5888 47.6881 41.1006 47.8904C40.6124 48.0926 40.0752 48.1455 39.5569 48.0424C39.0386 47.9393 38.5625 47.6848 38.1888 47.3112C37.8152 46.9375 37.5607 46.4614 37.4576 45.9431C37.3545 45.4248 37.4074 44.8876 37.6096 44.3994C37.8119 43.9112 38.1543 43.4939 38.5937 43.2003C39.0331 42.9067 39.5497 42.75 40.0781 42.75C40.7868 42.75 41.4664 43.0315 41.9674 43.5326C42.4685 44.0336 42.75 44.7132 42.75 45.4219ZM43.6406 28.8184C43.5659 29.23 43.3486 29.6021 43.027 29.8695C42.7054 30.137 42.2999 30.2828 41.8816 30.2812H15.4123L12.8228 16.0312H45.9585L43.6406 28.8184Z"
        fill="#000000" />
</svg>