<svg width="1823" height="1471" viewBox="0 0 1823 1471" fill="none" xmlns="http://www.w3.org/2000/svg">
<path fill-rule="evenodd" clip-rule="evenodd" d="M0 0H350H770V3.09473C950.936 25.6571 1094.34 169.064 1116.91 350L1117 350V1120H1120L770 1469.5V1120V489.956C749.278 410.137 720.512 388.56 639.915 350L350 350V1120H700V1470H350H0V0ZM1822.31 355.106L1192.31 355.106L1192.31 355.106V355.103C1121.18 169.361 1067.01 78.9927 912.314 3.09654L1192.31 5.10251V4.1062H1822.31V355.106ZM1120.26 1190L838.5 1470.89H1120.26L1120.26 1190Z" fill="url(#paint0_angular_203_48)"/>
<defs>
<radialGradient id="paint0_angular_203_48" cx="0" cy="0" r="1" gradientUnits="userSpaceOnUse" gradientTransform="translate(610 355) rotate(-179.711) scale(794.01 983.716)">
<stop stop-color="#0E54B1"/>
<stop offset="1" stop-color="#0094EB"/>
</radialGradient>
</defs>
</svg>
